<svg xmlns="http://www.w3.org/2000/svg" xmlns:xlink="http://www.w3.org/1999/xlink" width="500" zoomAndPan="magnify" viewBox="0 0 375 374.999991" height="500" preserveAspectRatio="xMidYMid meet" version="1.0"><defs><clipPath id="26799f9d2d"><path d="M 171 20.796875 L 204 20.796875 L 204 78 L 171 78 Z M 171 20.796875 " clip-rule="nonzero"/></clipPath></defs><path fill="#38b6ff" d="M 281.972656 238.089844 C 282.363281 238.234375 282.566406 238.375 282.769531 238.378906 C 291.726562 238.457031 300.683594 238.554688 309.636719 238.523438 C 310.296875 238.523438 311.183594 237.734375 311.582031 237.078125 C 315.121094 231.269531 321.9375 228.347656 328.484375 229.933594 C 335.476562 231.632812 339.972656 237.273438 339.757812 244.082031 C 339.535156 251.289062 334.800781 256.898438 327.8125 258.238281 C 320.914062 259.5625 313.949219 256 311.453125 249.554688 C 310.730469 247.6875 309.792969 247.257812 308 247.273438 C 299.273438 247.34375 290.542969 247.347656 281.808594 247.277344 C 280.226562 247.261719 279.433594 247.828125 278.671875 249.199219 C 277.320312 251.617188 275.757812 253.941406 274.082031 256.144531 C 273.136719 257.390625 272.964844 258.105469 274.183594 259.320312 C 282.972656 268.09375 291.699219 276.921875 300.386719 285.796875 C 301.679688 287.117188 302.707031 287.347656 304.464844 286.578125 C 314.242188 282.320312 325.363281 287.574219 327.472656 297.472656 C 328.910156 304.226562 327.164062 310.113281 321.464844 314.296875 C 315.644531 318.5625 309.375 318.542969 303.199219 315.074219 C 297.066406 311.625 294.585938 306.101562 294.996094 299.1875 C 295.035156 298.511719 295.011719 297.757812 295.3125 297.191406 C 296.652344 294.625 295.359375 293.164062 293.554688 291.394531 C 285.433594 283.449219 277.492188 275.3125 269.460938 267.277344 C 268.304688 266.121094 267.003906 265.109375 265.550781 263.839844 C 265.121094 264.824219 264.753906 265.472656 264.554688 266.167969 C 262.332031 273.816406 257.847656 279.910156 251.640625 284.761719 C 250.375 285.753906 249.894531 286.777344 249.902344 288.355469 C 249.964844 296.558594 249.953125 304.765625 249.890625 312.964844 C 249.878906 314.429688 250.257812 315.195312 251.710938 315.8125 C 258.378906 318.644531 261.464844 325.757812 259.269531 332.855469 C 257.105469 339.84375 250.445312 343.777344 242.976562 342.46875 C 235.984375 341.242188 230.992188 335.007812 231.40625 327.949219 C 231.730469 322.347656 234.570312 318.394531 239.410156 315.6875 C 240.117188 315.292969 240.972656 314.347656 240.976562 313.652344 C 241.058594 306.578125 240.976562 299.503906 240.933594 292.429688 C 240.933594 292.21875 240.804688 292.015625 240.632812 291.507812 C 231.125 295.261719 221.347656 295.816406 211.472656 293.472656 C 201.457031 291.097656 193.410156 285.542969 187.007812 277.261719 C 181.164062 285.367188 173.621094 290.738281 164.234375 293.335938 C 154.972656 295.894531 145.777344 295.164062 136.558594 292.046875 C 136.445312 292.59375 136.289062 293 136.289062 293.40625 C 136.292969 300.03125 136.339844 306.65625 136.320312 313.277344 C 136.316406 314.484375 136.664062 315.085938 137.875 315.589844 C 144.957031 318.523438 148.414062 326.996094 145.511719 334.019531 C 142.554688 341.167969 134.054688 344.652344 126.617188 341.761719 C 119.488281 338.996094 115.914062 331.023438 118.519531 323.71875 C 119.871094 319.921875 122.28125 317.039062 125.96875 315.367188 C 127.15625 314.828125 127.6875 314.210938 127.675781 312.863281 C 127.625 305.035156 127.679688 297.207031 127.605469 289.378906 C 127.597656 288.605469 127.207031 287.511719 126.617188 287.113281 C 118.570312 281.660156 113.121094 274.355469 110.503906 264.964844 C 110.464844 264.832031 110.335938 264.730469 110.085938 264.386719 C 109.523438 264.847656 108.933594 265.257812 108.429688 265.753906 C 99.257812 274.777344 90.105469 283.824219 80.914062 292.828125 C 79.992188 293.734375 79.773438 294.4375 80.25 295.738281 C 82.863281 302.839844 80.507812 310.28125 74.445312 314.546875 C 68.535156 318.703125 59.929688 318.375 54.203125 313.769531 C 48.859375 309.472656 46.960938 301.488281 49.707031 294.878906 C 52.414062 288.363281 59.476562 284.199219 66.648438 285.082031 C 68.632812 285.324219 70.605469 285.960938 72.484375 286.671875 C 73.632812 287.105469 74.3125 287.109375 75.21875 286.179688 C 83.851562 277.359375 92.511719 268.566406 101.242188 259.84375 C 102.570312 258.519531 102.480469 257.742188 101.355469 256.34375 C 99.390625 253.890625 97.789062 251.144531 95.886719 248.632812 C 95.355469 247.929688 94.300781 247.210938 93.480469 247.199219 C 85.882812 247.125 78.28125 247.214844 70.679688 247.226562 C 69.554688 247.230469 68.816406 247.347656 68.324219 248.6875 C 65.265625 257.035156 56.171875 260.679688 48.207031 256.867188 C 40.660156 253.25 37.796875 243.949219 42 236.691406 C 46.257812 229.335938 56.46875 227.15625 63.445312 232.269531 C 65.160156 233.53125 66.40625 235.425781 67.925781 236.96875 C 68.457031 237.507812 69.160156 238.246094 69.789062 238.253906 C 77.304688 238.339844 84.820312 238.308594 92.375 238.308594 C 92.375 235.917969 92.125 233.660156 92.425781 231.488281 C 93.152344 226.179688 91.449219 222.1875 87.882812 218.039062 C 84.34375 213.925781 82.25 208.542969 79.667969 203.640625 C 79.019531 202.410156 78.585938 201.605469 76.953125 201.617188 C 63.785156 201.691406 50.609375 201.695312 37.441406 201.605469 C 35.375 201.59375 34.308594 202.285156 33.300781 204.113281 C 30.050781 210.011719 24.914062 213.125 18.140625 212.886719 C 11.886719 212.664062 7.058594 209.738281 4.171875 204.066406 C -0.00390625 195.882812 3.679688 185.597656 11.992188 181.984375 C 20.515625 178.273438 30.953125 182.457031 34.136719 190.953125 C 34.652344 192.328125 35.296875 192.738281 36.714844 192.738281 C 49.511719 192.679688 62.304688 192.652344 75.097656 192.75 C 77.238281 192.769531 77.683594 192.070312 77.707031 190.066406 C 77.96875 168.226562 89.183594 153.191406 107.433594 142.597656 C 108.460938 142 109.632812 141.644531 110.824219 141.136719 C 109.980469 138.699219 109.183594 136.226562 108.21875 133.824219 C 108.050781 133.40625 107.15625 133.058594 106.597656 133.058594 C 92.902344 133.054688 79.203125 133.074219 65.507812 133.21875 C 64.820312 133.226562 63.863281 134.296875 63.515625 135.085938 C 59.148438 144.875 45.554688 146.988281 38.6875 138.816406 C 34.800781 134.191406 34.085938 128.929688 36.492188 123.394531 C 38.871094 117.914062 43.21875 114.96875 49.140625 114.660156 C 55.234375 114.34375 59.964844 116.960938 63.003906 122.246094 C 63.8125 123.652344 64.613281 124.085938 66.136719 124.082031 C 79.308594 124.046875 92.480469 124.085938 105.652344 124.097656 C 106.3125 124.097656 106.976562 124.027344 107.511719 123.996094 C 108.179688 121.085938 108.921875 118.34375 109.371094 115.550781 C 109.476562 114.902344 108.710938 113.96875 108.128906 113.375 C 98.464844 103.570312 88.769531 93.792969 79.078125 84.007812 C 78.707031 83.632812 78.296875 83.285156 77.980469 82.875 C 75.789062 80.015625 73.953125 78.597656 69.601562 80.355469 C 61.328125 83.691406 52.230469 78.59375 49.300781 70.175781 C 46.511719 62.167969 50.519531 53.222656 58.371094 49.960938 C 66.417969 46.613281 75.621094 49.941406 79.34375 57.59375 C 81.34375 61.699219 81.46875 65.96875 80.410156 70.363281 C 80.222656 71.160156 80.328125 72.410156 80.835938 72.929688 C 91.410156 83.75 102.054688 94.492188 112.691406 105.246094 C 113 105.558594 113.367188 105.816406 113.917969 106.273438 C 114.523438 105.527344 114.988281 104.765625 115.625 104.191406 C 118.839844 101.28125 121.984375 98.285156 125.382812 95.613281 C 126.59375 94.660156 127.171875 93.898438 127.164062 92.378906 C 127.121094 81.617188 127.109375 70.851562 127.191406 60.089844 C 127.207031 58.292969 126.707031 57.335938 125.027344 56.472656 C 119.324219 53.558594 116.265625 46.898438 117.609375 40.921875 C 118.988281 34.804688 124.519531 30.050781 130.726562 29.640625 C 137.234375 29.210938 143.132812 33.054688 145.34375 39.160156 C 147.917969 46.285156 144.59375 53.933594 137.554688 56.914062 C 136.402344 57.402344 135.699219 57.835938 135.707031 59.277344 C 135.761719 69.585938 135.730469 79.902344 135.734375 90.214844 C 135.734375 90.507812 135.800781 90.804688 135.875 91.386719 C 151.609375 80.597656 166.921875 82.121094 181.546875 92.570312 C 182.582031 90.894531 183.351562 89.128906 184.609375 87.832031 C 185.300781 87.117188 186.824219 86.933594 187.957031 86.96875 C 190.738281 87.058594 191.96875 88.699219 192.585938 92.992188 C 208.558594 81.265625 224.640625 81.089844 241.074219 92.660156 C 241.128906 91.566406 241.203125 90.714844 241.207031 89.863281 C 241.242188 80.003906 241.214844 70.144531 241.335938 60.285156 C 241.359375 58.386719 240.820312 57.367188 239.074219 56.457031 C 233.542969 53.570312 230.644531 47.351562 231.796875 41.46875 C 233.007812 35.28125 237.890625 30.589844 243.996094 29.753906 C 250.152344 28.90625 256.089844 32.15625 258.796875 37.847656 C 261.40625 43.347656 260.230469 50.160156 255.78125 54.25 C 254.472656 55.449219 252.734375 56.160156 251.308594 57.246094 C 250.710938 57.707031 250.050781 58.566406 250.046875 59.246094 C 249.972656 70.910156 249.988281 82.578125 250.039062 94.242188 C 250.039062 94.902344 250.316406 95.898438 250.785156 96.164062 C 255.269531 98.703125 258.554688 102.488281 261.683594 106.613281 C 262.277344 106.128906 262.761719 105.792969 263.175781 105.386719 C 273.484375 95.152344 283.753906 84.882812 294.121094 74.710938 C 296 72.867188 296.667969 71.222656 296.019531 68.453125 C 294.085938 60.222656 298.910156 51.949219 306.691406 49.402344 C 314.964844 46.699219 323.457031 50.414062 327.019531 58.296875 C 330.382812 65.75 327.65625 74.910156 320.636719 79.03125 C 315.539062 82.023438 310.125 82.105469 304.851562 79.539062 C 303.027344 78.652344 302.191406 79.066406 300.894531 80.367188 C 289.519531 91.757812 278.046875 103.054688 266.640625 114.421875 C 266.148438 114.910156 265.757812 115.8125 265.808594 116.484375 C 265.972656 118.578125 266.285156 120.675781 266.746094 122.71875 C 266.871094 123.257812 267.753906 124.007812 268.292969 124.011719 C 282.441406 124.113281 296.589844 124.148438 310.738281 124.09375 C 311.445312 124.089844 312.453125 123.296875 312.808594 122.609375 C 315.917969 116.566406 323.0625 113.3125 329.816406 114.988281 C 336.5625 116.65625 341.109375 122.609375 340.964844 129.574219 C 340.816406 136.589844 336.09375 142.195312 329.160156 143.585938 C 322.277344 144.964844 315.175781 141.246094 312.394531 134.683594 C 311.894531 133.503906 311.253906 133.089844 310.058594 133.089844 C 295.984375 133.101562 281.910156 133.085938 267.832031 133.121094 C 267.265625 133.121094 266.351562 133.441406 266.1875 133.851562 C 265.175781 136.335938 264.332031 138.886719 263.488281 141.257812 C 273.644531 145.902344 282.128906 152.425781 288.199219 161.765625 C 294.226562 171.042969 296.972656 181.304688 296.441406 192.710938 C 297.527344 192.710938 298.398438 192.710938 299.273438 192.710938 C 312.066406 192.699219 324.863281 192.636719 337.652344 192.726562 C 339.714844 192.738281 340.640625 192.097656 341.472656 190.21875 C 345.132812 181.96875 354.703125 178.363281 363.121094 181.875 C 370.960938 185.140625 375.003906 194.363281 371.90625 202.367188 C 369.453125 208.71875 364.546875 212.257812 357.867188 212.839844 C 350.679688 213.46875 345.089844 210.441406 341.632812 204.054688 C 340.664062 202.269531 339.648438 201.640625 337.652344 201.65625 C 324.183594 201.746094 310.707031 201.722656 297.238281 201.707031 C 295.957031 201.707031 295.007812 201.734375 294.539062 203.335938 C 292.429688 210.628906 288.5625 216.945312 283.328125 222.410156 C 282.292969 223.492188 282.027344 224.539062 282.117188 226.023438 C 282.304688 229.160156 282.191406 232.320312 282.164062 235.46875 C 282.164062 236.34375 282.039062 237.230469 281.972656 238.089844 Z M 207.824219 167.042969 C 207.0625 166.566406 205.84375 166.050781 204.960938 165.191406 C 202.664062 162.96875 200.226562 160.796875 198.390625 158.21875 C 196.878906 156.097656 197.347656 153.292969 199.003906 152.265625 C 202.265625 150.25 203.5 147.054688 204.300781 143.675781 C 207.925781 128.367188 203.003906 115.398438 193.136719 103.84375 C 192.9375 103.609375 192.554688 103.539062 192.015625 103.265625 C 191.96875 104.265625 191.90625 104.992188 191.90625 105.71875 C 191.882812 112.265625 191.878906 118.816406 191.867188 125.363281 C 191.792969 171.273438 191.710938 217.1875 191.675781 263.097656 C 191.675781 264.714844 191.769531 266.523438 192.460938 267.914062 C 196.773438 276.570312 203.996094 281.777344 213.066406 284.601562 C 213.570312 284.757812 214.625 284.390625 214.855469 283.960938 C 215.84375 282.125 216.621094 280.175781 217.519531 278.160156 C 216.890625 277.894531 216.425781 277.675781 215.941406 277.5 C 205.464844 273.691406 197.679688 262.511719 197.710938 251.308594 C 197.71875 248.386719 199.394531 246.328125 201.953125 246.101562 C 204.632812 245.867188 206.535156 247.449219 207.0625 250.359375 C 207.398438 252.210938 207.628906 254.085938 208.085938 255.90625 C 210.167969 264.160156 217.445312 270.117188 225.089844 269.8125 C 229.230469 269.648438 232.523438 267.910156 234.855469 264.4375 C 232.4375 262.769531 230.09375 261.394531 228.023438 259.6875 C 218.078125 251.484375 215.117188 237.640625 220.75 226.148438 C 226.066406 215.292969 238.359375 209.546875 250.75 212.234375 C 252.105469 212.527344 252.660156 212.046875 253.257812 211.058594 C 256.078125 206.402344 255.210938 199.273438 251.320312 195.335938 C 246.359375 190.320312 237.085938 192.316406 234.910156 198.863281 C 234.039062 201.492188 230.980469 203.476562 228.359375 202.863281 C 226.996094 202.546875 225.722656 201.792969 224.457031 201.140625 C 220.007812 198.835938 215.28125 198.128906 209.992188 198.445312 C 210.523438 199.199219 210.84375 199.671875 211.183594 200.128906 C 216.128906 206.789062 218.027344 214.128906 215.878906 222.257812 C 214.820312 226.253906 213.515625 230.1875 212.25 234.125 C 211.679688 235.910156 211.078125 237.710938 210.246094 239.382812 C 209.03125 241.835938 205.648438 242.546875 202.960938 241.082031 C 200.597656 239.792969 200.324219 238.015625 201.5 235.117188 C 203.277344 230.742188 204.988281 226.316406 206.375 221.800781 C 208.140625 216.046875 207 210.507812 203.625 205.671875 C 201.816406 203.074219 199.136719 201.089844 196.90625 198.773438 C 196.210938 198.050781 195.246094 197.195312 195.179688 196.335938 C 194.644531 189.625 195.074219 182.96875 199.101562 177.277344 C 201.632812 173.703125 204.78125 170.574219 207.824219 167.042969 Z M 166.128906 168.019531 C 166.609375 168.363281 166.972656 168.621094 167.328125 168.886719 C 174.902344 174.457031 178.886719 181.835938 179.25 191.332031 C 179.414062 195.675781 178.324219 198.625 174.617188 201.375 C 168.507812 205.910156 165.777344 212.523438 167.476562 220.097656 C 168.601562 225.113281 170.722656 229.917969 172.605469 234.738281 C 173.425781 236.835938 173.707031 238.621094 171.953125 240.296875 C 170.378906 241.796875 167.738281 242.367188 165.902344 241.128906 C 164.683594 240.304688 163.480469 238.960938 163.023438 237.59375 C 161.226562 232.253906 159.515625 226.863281 158.183594 221.390625 C 156.6875 215.257812 157.6875 209.246094 160.445312 203.605469 C 161.335938 201.785156 162.722656 200.207031 164.09375 198.203125 C 162.960938 198.203125 162.082031 198.191406 161.207031 198.203125 C 156.339844 198.265625 151.964844 199.945312 147.652344 202.042969 C 144.027344 203.808594 140.746094 202.183594 139.507812 198.363281 C 139.214844 197.457031 138.824219 196.484375 138.199219 195.800781 C 133.753906 190.960938 125.53125 191.585938 121.863281 197.035156 C 119.710938 200.238281 118.980469 203.855469 119.746094 207.601562 C 120.074219 209.214844 120.941406 210.867188 122.023438 212.105469 C 122.421875 212.554688 124.140625 211.828125 125.261719 211.664062 C 135.542969 210.15625 144.117188 213.5625 150.492188 221.527344 C 161.21875 234.933594 156.609375 255.109375 141.261719 263.347656 C 140.582031 263.714844 139.910156 264.089844 139.191406 264.492188 C 145.316406 271.917969 156.78125 271.089844 162.601562 263.082031 C 165.300781 259.371094 166.4375 255.164062 166.726562 250.628906 C 166.925781 247.585938 168.914062 245.933594 171.796875 246.082031 C 174.433594 246.214844 175.988281 247.917969 176.03125 250.929688 C 176.167969 261.175781 169.136719 274.664062 157.394531 277.492188 C 157.054688 277.574219 156.75 277.800781 156.066406 278.136719 C 157.046875 279.929688 157.984375 281.601562 158.875 283.292969 C 159.589844 284.660156 160.558594 284.949219 162.039062 284.484375 C 166.933594 282.957031 171.320312 280.574219 175.035156 277.027344 C 179.894531 272.378906 182.5625 267.074219 182.53125 259.929688 C 182.308594 208.757812 182.414062 157.578125 182.414062 106.40625 C 182.414062 105.480469 182.414062 104.554688 182.414062 103.132812 C 181.515625 103.859375 181.070312 104.125 180.75 104.496094 C 172.417969 114.089844 168.269531 125.179688 169.324219 137.921875 C 169.714844 142.605469 170.390625 147.386719 174.09375 150.976562 C 176.980469 153.777344 177.226562 155.714844 175.078125 159.160156 C 174.289062 160.425781 173.375 161.664062 172.300781 162.691406 C 170.402344 164.503906 168.339844 166.128906 166.128906 168.019531 Z M 165.628906 157.054688 C 164.695312 155.046875 163.632812 153.214844 162.964844 151.25 C 156.726562 132.886719 159.894531 116.136719 171.847656 101.003906 C 173.101562 99.417969 173.144531 98.644531 171.46875 97.5 C 167.527344 94.796875 163.246094 93.132812 158.46875 92.847656 C 149.25 92.289062 141.699219 97.527344 139.535156 105.945312 C 137.378906 114.339844 141.589844 123.347656 149.414062 127.082031 C 152.273438 128.445312 153.621094 131.082031 152.78125 133.664062 C 151.976562 136.132812 149.503906 137.289062 146.3125 136.6875 C 145.867188 136.605469 145.425781 136.519531 144.980469 136.441406 C 140.035156 135.582031 132.875 138.910156 130.390625 143.261719 C 129.585938 144.667969 129.089844 146.070312 130.066406 147.703125 C 134.566406 155.238281 132.878906 165.601562 126.8125 172.453125 C 122.101562 177.773438 116.75 178.601562 110.6875 174.910156 C 109.679688 174.296875 108.714844 173.625 107.640625 172.917969 C 105.621094 175.4375 104.539062 178.097656 104.707031 181.15625 C 104.886719 184.347656 106.730469 186.421875 109.507812 187.71875 C 112.109375 188.929688 114.359375 188.984375 116.976562 187.019531 C 126.007812 180.226562 138.628906 181.945312 145.726562 190.675781 C 146.667969 191.839844 147.34375 192.234375 148.878906 191.609375 C 154.316406 189.398438 159.992188 188.410156 165.878906 189.054688 C 167.179688 189.195312 168.464844 189.484375 170.0625 189.761719 C 169.761719 188.464844 169.609375 187.503906 169.316406 186.597656 C 166.269531 177.1875 158.53125 171.527344 148.464844 171.3125 C 145.363281 171.246094 143.820312 170.082031 143.472656 167.546875 C 143.117188 164.925781 144.574219 162.679688 147.34375 162.027344 C 148.933594 161.648438 150.617188 161.628906 152.265625 161.53125 C 157.082031 161.242188 161.542969 159.941406 165.628906 157.054688 Z M 204.257812 189.527344 C 212.621094 187.550781 220.183594 188.835938 227.449219 192.246094 C 230.890625 187.636719 235.332031 184.789062 240.632812 183.34375 C 247.4375 181.492188 253.386719 183.746094 258.871094 187.628906 C 260.167969 188.546875 261.34375 189.160156 263.011719 188.722656 C 266.28125 187.859375 268.585938 186.019531 269.25 182.636719 C 270.011719 178.757812 268.6875 175.460938 266 172.464844 C 265.273438 173.050781 264.707031 173.519531 264.125 173.96875 C 259.101562 177.828125 253.582031 177.761719 248.855469 173.78125 C 241.972656 167.988281 239.449219 156.605469 243.65625 148.652344 C 245.019531 146.082031 244.601562 144.261719 242.992188 142.355469 C 242.027344 141.21875 240.964844 140.109375 239.761719 139.246094 C 235.96875 136.507812 231.796875 135.679688 227.144531 136.664062 C 223.304688 137.476562 220.289062 134.105469 221.269531 130.386719 C 221.835938 128.230469 223.722656 127.480469 225.480469 126.621094 C 231.707031 123.558594 236.101562 115.753906 235.414062 108.984375 C 234.46875 99.648438 227.929688 93.378906 218.363281 92.953125 C 211.902344 92.660156 206.230469 94.902344 201.097656 98.894531 C 201.464844 99.414062 201.628906 99.65625 201.808594 99.890625 C 215.089844 117.097656 219.511719 135.488281 209.222656 155.808594 C 208.660156 156.914062 208.90625 157.515625 209.921875 157.917969 C 212.636719 158.992188 215.296875 160.308594 218.109375 160.996094 C 220.480469 161.578125 223.03125 161.394531 225.5 161.59375 C 228.65625 161.84375 231.449219 164.535156 231.332031 167.160156 C 231.207031 169.902344 228.910156 171.378906 225.230469 171.359375 C 217.898438 171.320312 212.238281 174.640625 207.980469 180.4375 C 206.082031 183.027344 204.761719 185.941406 204.257812 189.527344 Z M 273.332031 233.0625 C 272.347656 233.632812 271.710938 233.972656 271.101562 234.363281 C 264.648438 238.515625 258.210938 242.6875 251.742188 246.816406 C 250.738281 247.457031 249.65625 248.058594 248.523438 248.398438 C 245.980469 249.152344 242.875 247.578125 241.988281 245.238281 C 241.140625 243.011719 242.261719 240.816406 244.753906 239.300781 C 253.554688 233.945312 262.292969 228.492188 271.109375 223.164062 C 272.464844 222.34375 272.558594 221.425781 272.175781 220.167969 C 270.730469 215.429688 268.453125 211.140625 265.152344 207.425781 C 264.84375 207.078125 264.375 206.875 263.699219 206.410156 C 263.699219 211.03125 261.945312 214.722656 259.667969 218.214844 C 256.804688 222.59375 254.699219 223.304688 249.78125 221.589844 C 243.894531 219.542969 236.070312 221.515625 231.914062 226.101562 C 224.941406 233.792969 225.824219 245.539062 233.894531 252.492188 C 243.589844 260.84375 258.980469 259.1875 267.621094 248.84375 C 271.308594 244.425781 273.375 239.398438 273.332031 233.0625 Z M 110.324219 206.386719 C 106.175781 210.511719 103.578125 215.40625 102.199219 220.953125 C 102.09375 221.378906 102.628906 222.164062 103.082031 222.5 C 105.066406 223.988281 107.070312 225.464844 109.167969 226.777344 C 115.929688 230.992188 122.785156 235.054688 129.480469 239.363281 C 130.792969 240.207031 131.992188 241.742188 132.484375 243.214844 C 133.089844 245.039062 132.019531 246.707031 130.355469 247.789062 C 128.558594 248.964844 126.730469 249.109375 124.859375 247.925781 C 117.933594 243.539062 111.007812 239.160156 104.074219 234.800781 C 103.226562 234.265625 102.308594 233.851562 101.113281 233.214844 C 101.167969 234.242188 101.15625 234.832031 101.238281 235.40625 C 102.699219 245.902344 110.851562 254.894531 121.21875 257.128906 C 130.128906 259.050781 137.832031 256.828125 143.554688 249.484375 C 148.410156 243.25 148.339844 234.328125 143.738281 227.773438 C 139.269531 221.414062 131.054688 219.089844 124.359375 221.773438 C 120.242188 223.421875 118.0625 222.496094 115.40625 218.894531 C 112.6875 215.195312 110.851562 211.132812 110.324219 206.386719 Z M 101.941406 158.074219 C 85.882812 166.363281 81.449219 202.039062 95.273438 212.484375 C 98.078125 206.5625 101.402344 201.027344 106.738281 197.007812 C 99.878906 193.679688 95.816406 188.609375 95.460938 181.144531 C 95.167969 175.023438 97.574219 169.878906 102.066406 165.691406 C 102.675781 165.125 103.554688 164.242188 103.460938 163.636719 C 103.175781 161.757812 102.480469 159.9375 101.941406 158.074219 Z M 270.441406 164.589844 C 276.386719 168.671875 279.355469 174.371094 278.882812 181.480469 C 278.410156 188.675781 274.550781 193.910156 268.019531 197.214844 C 273.273438 201.285156 276.292969 206.789062 279.078125 212.519531 C 293.28125 197.03125 288.140625 169.503906 272.101562 157.789062 C 271.554688 160.007812 271.015625 162.230469 270.441406 164.589844 Z M 252.925781 140.105469 C 257.960938 133.691406 259.15625 126.410156 256.886719 118.574219 C 254.792969 111.347656 250.382812 105.949219 243.0625 102.214844 C 246.085938 112.152344 243.96875 120.566406 238.34375 127.847656 C 241.300781 129.535156 244.296875 130.746094 246.644531 132.726562 C 249.039062 134.753906 250.792969 137.535156 252.925781 140.105469 Z M 136.320312 128.390625 C 130.019531 120.597656 128.566406 112.09375 131.023438 102.652344 C 117.207031 110.125 112.484375 129.507812 121.746094 140.40625 C 124.933594 134.5625 129.167969 129.96875 136.320312 128.390625 Z M 223.902344 285.621094 C 236.550781 285.953125 250.816406 276.605469 254.582031 266.625 C 251.488281 266.792969 248.445312 266.917969 245.410156 267.179688 C 244.953125 267.21875 244.457031 267.839844 244.136719 268.308594 C 240.300781 273.9375 234.953125 277.261719 228.378906 278.769531 C 227.847656 278.894531 227.144531 279.152344 226.914062 279.566406 C 225.847656 281.515625 224.917969 283.542969 223.902344 285.621094 Z M 120.777344 266.789062 C 123.683594 275.949219 141.167969 287.148438 149.691406 285.410156 C 148.832031 283.417969 148.046875 281.402344 147.085938 279.472656 C 146.839844 278.976562 146.101562 278.542969 145.519531 278.425781 C 139.027344 277.070312 133.980469 273.601562 130.179688 268.199219 C 129.84375 267.722656 129.140625 267.289062 128.570312 267.234375 C 126.042969 267.007812 123.507812 266.929688 120.777344 266.789062 Z M 319.867188 64.96875 C 319.878906 60.566406 316.394531 57.101562 311.972656 57.117188 C 307.636719 57.136719 304.167969 60.527344 304.125 64.785156 C 304.082031 69.019531 307.761719 72.792969 311.964844 72.808594 C 316.363281 72.835938 319.859375 69.363281 319.867188 64.96875 Z M 65.078125 293.613281 C 60.332031 293.574219 56.9375 296.941406 56.960938 301.664062 C 56.984375 305.769531 60.484375 309.140625 64.726562 309.144531 C 69.128906 309.148438 72.699219 305.820312 72.761719 301.664062 C 72.824219 297.253906 69.390625 293.648438 65.078125 293.613281 Z M 311.484375 293.675781 C 307.042969 293.707031 303.6875 296.972656 303.675781 301.28125 C 303.667969 305.90625 307.039062 309.210938 311.714844 309.164062 C 315.980469 309.125 319.429688 305.664062 319.472656 301.386719 C 319.515625 297.03125 316.011719 293.648438 311.484375 293.675781 Z M 356.480469 204.535156 C 360.875 204.582031 364.28125 201.324219 364.34375 197.011719 C 364.40625 192.628906 360.925781 189.097656 356.550781 189.101562 C 352.226562 189.109375 348.675781 192.492188 348.605469 196.675781 C 348.535156 200.976562 352.046875 204.484375 356.480469 204.535156 Z M 64.804688 72.699219 C 69.082031 72.75 72.515625 69.308594 72.515625 64.96875 C 72.515625 60.769531 69.179688 57.339844 64.996094 57.238281 C 60.574219 57.132812 57.058594 60.546875 57.027344 64.976562 C 57 69.179688 60.5 72.652344 64.804688 72.699219 Z M 18.699219 204.40625 C 23.324219 204.417969 26.636719 201.183594 26.601562 196.6875 C 26.566406 192.433594 23.316406 189.242188 18.933594 189.171875 C 14.570312 189.101562 11.144531 192.457031 11.144531 196.800781 C 11.148438 201.117188 14.40625 204.398438 18.699219 204.40625 Z M 114.941406 149.066406 C 114.492188 149.113281 113.328125 149.085938 112.273438 149.402344 C 111.722656 149.566406 111.011719 150.328125 110.96875 150.863281 C 110.546875 156.457031 111.679688 161.636719 115.414062 166.027344 C 117.082031 167.988281 118.277344 168.023438 120.070312 166.097656 C 122.863281 163.105469 123.355469 159.429688 122.898438 155.574219 C 122.347656 150.917969 120.257812 149.117188 114.941406 149.066406 Z M 258.585938 149.261719 C 255.992188 149.113281 253.402344 149.667969 251.894531 152.601562 C 249.835938 156.59375 250.804688 162.882812 254 166.03125 C 255.792969 167.796875 256.609375 167.851562 258.289062 166.023438 C 261.628906 162.375 263.40625 158.136719 262.980469 153.09375 C 262.664062 149.3125 262.691406 149.308594 258.585938 149.261719 Z M 49.894531 135.445312 C 53.503906 135.453125 56.308594 132.757812 56.316406 129.28125 C 56.324219 126 53.433594 123.214844 50.023438 123.210938 C 46.5 123.210938 43.695312 126.03125 43.742188 129.527344 C 43.789062 132.808594 46.527344 135.4375 49.894531 135.445312 Z M 326.066406 135.351562 C 329.695312 135.390625 332.546875 132.777344 332.632812 129.324219 C 332.710938 126.164062 329.703125 123.246094 326.339844 123.214844 C 322.875 123.179688 319.976562 125.878906 319.980469 129.144531 C 319.976562 132.601562 322.636719 135.3125 326.066406 135.351562 Z M 60.761719 243.636719 C 60.726562 240.367188 57.976562 237.894531 54.460938 237.96875 C 51.050781 238.039062 48.640625 240.46875 48.640625 243.835938 C 48.640625 247.382812 51.265625 250.019531 54.742188 249.972656 C 58.082031 249.921875 60.796875 247.0625 60.761719 243.636719 Z M 331.101562 244.136719 C 331.121094 240.585938 328.644531 238.109375 325.015625 238.046875 C 321.582031 237.984375 319.007812 240.472656 318.957031 243.902344 C 318.910156 247.425781 321.675781 250.210938 325.199219 250.179688 C 328.589844 250.152344 331.085938 247.597656 331.101562 244.136719 Z M 137.746094 328.667969 C 137.71875 325.605469 135.019531 322.84375 132.039062 322.820312 C 128.925781 322.792969 126.195312 325.636719 126.273438 328.8125 C 126.347656 331.90625 129.050781 334.480469 132.164062 334.429688 C 135.492188 334.378906 137.777344 332.019531 137.746094 328.667969 Z M 251.421875 328.714844 C 251.363281 325.566406 248.574219 322.765625 245.535156 322.808594 C 242.546875 322.847656 240.03125 325.605469 240.058594 328.800781 C 240.089844 332.109375 242.601562 334.457031 246.058594 334.402344 C 249.238281 334.355469 251.480469 331.976562 251.421875 328.714844 Z M 137.460938 43.9375 C 137.464844 40.9375 134.875 38.402344 131.804688 38.394531 C 128.507812 38.386719 126.007812 40.808594 126.007812 44.007812 C 126.007812 46.960938 128.632812 49.523438 131.6875 49.558594 C 134.957031 49.597656 137.457031 47.164062 137.460938 43.9375 Z M 251.515625 44.074219 C 251.542969 40.804688 249.304688 38.527344 246.046875 38.519531 C 242.785156 38.511719 240.414062 40.796875 240.40625 43.957031 C 240.398438 47.058594 243.101562 49.867188 246.050781 49.828125 C 249.035156 49.785156 251.492188 47.203125 251.515625 44.074219 Z M 251.515625 44.074219 " fill-opacity="1" fill-rule="nonzero"/><g clip-path="url(#26799f9d2d)"><path fill="#38b6ff" d="M 188.1875 20.6875 C 195.347656 20.679688 201.800781 25.929688 203.433594 33.085938 C 205.132812 40.550781 201.625 47.960938 194.558594 51.1875 C 192.621094 52.070312 192.148438 53.136719 192.183594 55.082031 C 192.285156 60.867188 192.21875 66.65625 192.199219 72.445312 C 192.1875 74.980469 189.957031 77.46875 187.757812 77.464844 C 185.3125 77.457031 183.398438 75.554688 183.355469 72.714844 C 183.265625 66.550781 183.285156 60.386719 183.359375 54.222656 C 183.382812 52.671875 182.957031 51.851562 181.445312 51.179688 C 174.375 48.050781 170.726562 40.542969 172.398438 32.941406 C 173.992188 25.707031 180.441406 20.695312 188.1875 20.6875 Z M 195.140625 36.78125 C 195.167969 32.703125 191.898438 29.3125 187.957031 29.316406 C 183.777344 29.328125 180.507812 32.625 180.523438 36.796875 C 180.542969 40.734375 183.933594 44.226562 187.796875 44.277344 C 191.929688 44.339844 195.113281 41.085938 195.140625 36.78125 Z M 195.140625 36.78125 " fill-opacity="1" fill-rule="nonzero"/></g><path fill="#38b6ff" d="M 183.328125 311.152344 C 183.332031 308.371094 183.296875 305.589844 183.34375 302.808594 C 183.390625 299.882812 185.027344 298.210938 187.746094 298.21875 C 190.292969 298.226562 192.179688 300.101562 192.207031 302.867188 C 192.257812 308.277344 192.269531 313.691406 192.183594 319.097656 C 192.15625 320.761719 192.515625 321.660156 194.246094 322.425781 C 204.601562 326.996094 207.363281 341.101562 199.414062 348.597656 C 194.449219 353.28125 188.503906 354.269531 182.25 351.9375 C 175.96875 349.601562 172.476562 344.773438 172.15625 338.039062 C 171.824219 331.097656 174.894531 325.796875 180.996094 322.519531 C 182.800781 321.546875 183.515625 320.585938 183.371094 318.582031 C 183.191406 316.125 183.324219 313.632812 183.328125 311.152344 Z M 195.351562 336.953125 C 195.339844 333.019531 191.964844 329.75 187.921875 329.75 C 183.671875 329.75 180.488281 332.960938 180.558594 337.171875 C 180.628906 341.382812 184.101562 344.84375 188.179688 344.78125 C 192.039062 344.722656 195.363281 341.085938 195.351562 336.953125 Z M 195.351562 336.953125 " fill-opacity="1" fill-rule="nonzero"/></svg>