<svg xmlns="http://www.w3.org/2000/svg" xmlns:xlink="http://www.w3.org/1999/xlink" width="500" zoomAndPan="magnify" viewBox="0 0 375 374.999991" height="500" preserveAspectRatio="xMidYMid meet" version="1.0"><defs><clipPath id="39193f5273"><path d="M 177 78.472656 L 199 78.472656 L 199 116 L 177 116 Z M 177 78.472656 " clip-rule="nonzero"/></clipPath></defs><path fill="#ffffff" d="M 249.28125 220.582031 C 249.535156 220.675781 249.671875 220.769531 249.804688 220.769531 C 255.660156 220.820312 261.519531 220.886719 267.375 220.867188 C 267.804688 220.863281 268.386719 220.351562 268.648438 219.921875 C 270.960938 216.121094 275.417969 214.210938 279.699219 215.25 C 284.273438 216.359375 287.214844 220.050781 287.074219 224.5 C 286.925781 229.214844 283.832031 232.882812 279.261719 233.761719 C 274.746094 234.625 270.195312 232.296875 268.5625 228.082031 C 268.089844 226.859375 267.476562 226.578125 266.304688 226.589844 C 260.59375 226.632812 254.886719 226.636719 249.175781 226.589844 C 248.140625 226.582031 247.621094 226.953125 247.121094 227.847656 C 246.238281 229.429688 245.214844 230.949219 244.121094 232.390625 C 243.5 233.203125 243.390625 233.671875 244.1875 234.46875 C 249.933594 240.207031 255.644531 245.980469 261.324219 251.78125 C 262.171875 252.648438 262.839844 252.796875 263.992188 252.292969 C 270.386719 249.511719 277.660156 252.945312 279.039062 259.417969 C 279.980469 263.835938 278.835938 267.6875 275.109375 270.421875 C 271.304688 273.210938 267.203125 273.199219 263.164062 270.929688 C 259.152344 268.671875 257.53125 265.0625 257.796875 260.539062 C 257.824219 260.097656 257.808594 259.605469 258.003906 259.234375 C 258.882812 257.558594 258.035156 256.601562 256.855469 255.445312 C 251.542969 250.246094 246.351562 244.925781 241.097656 239.671875 C 240.34375 238.914062 239.492188 238.253906 238.539062 237.421875 C 238.261719 238.066406 238.019531 238.488281 237.890625 238.945312 C 236.4375 243.945312 233.503906 247.933594 229.445312 251.105469 C 228.617188 251.753906 228.300781 252.421875 228.308594 253.457031 C 228.347656 258.820312 228.339844 264.1875 228.300781 269.550781 C 228.292969 270.507812 228.539062 271.007812 229.492188 271.414062 C 233.851562 273.265625 235.867188 277.917969 234.433594 282.558594 C 233.019531 287.128906 228.664062 289.703125 223.777344 288.84375 C 219.207031 288.042969 215.941406 283.96875 216.210938 279.351562 C 216.421875 275.6875 218.28125 273.101562 221.445312 271.332031 C 221.90625 271.074219 222.464844 270.457031 222.472656 270 C 222.523438 265.375 222.472656 260.746094 222.441406 256.121094 C 222.441406 255.984375 222.355469 255.847656 222.246094 255.515625 C 216.027344 257.972656 209.632812 258.335938 203.175781 256.804688 C 196.625 255.25 191.363281 251.617188 187.171875 246.199219 C 183.351562 251.503906 178.421875 255.015625 172.28125 256.710938 C 166.222656 258.386719 160.210938 257.910156 154.179688 255.871094 C 154.105469 256.226562 154.003906 256.492188 154.003906 256.761719 C 154.007812 261.089844 154.039062 265.425781 154.023438 269.753906 C 154.019531 270.542969 154.25 270.9375 155.042969 271.269531 C 159.671875 273.183594 161.933594 278.726562 160.035156 283.320312 C 158.101562 287.996094 152.542969 290.273438 147.675781 288.386719 C 143.015625 286.574219 140.679688 281.359375 142.382812 276.582031 C 143.265625 274.101562 144.84375 272.214844 147.253906 271.121094 C 148.03125 270.769531 148.378906 270.367188 148.371094 269.484375 C 148.335938 264.367188 148.375 259.246094 148.324219 254.125 C 148.320312 253.621094 148.066406 252.902344 147.679688 252.644531 C 142.414062 249.078125 138.851562 244.300781 137.140625 238.160156 C 137.117188 238.074219 137.03125 238.003906 136.867188 237.78125 C 136.5 238.082031 136.113281 238.351562 135.785156 238.675781 C 129.785156 244.578125 123.800781 250.492188 117.789062 256.382812 C 117.1875 256.972656 117.042969 257.433594 117.355469 258.285156 C 119.066406 262.929688 117.523438 267.796875 113.558594 270.585938 C 109.695312 273.304688 104.066406 273.089844 100.320312 270.078125 C 96.824219 267.265625 95.585938 262.046875 97.378906 257.722656 C 99.148438 253.460938 103.769531 250.738281 108.460938 251.316406 C 109.757812 251.476562 111.046875 251.890625 112.277344 252.355469 C 113.027344 252.636719 113.472656 252.640625 114.066406 252.035156 C 119.710938 246.265625 125.375 240.515625 131.082031 234.808594 C 131.953125 233.945312 131.894531 233.433594 131.160156 232.519531 C 129.871094 230.917969 128.824219 229.121094 127.582031 227.480469 C 127.234375 227.019531 126.542969 226.546875 126.007812 226.539062 C 121.039062 226.492188 116.066406 226.550781 111.09375 226.558594 C 110.359375 226.558594 109.875 226.636719 109.554688 227.511719 C 107.554688 232.972656 101.605469 235.355469 96.398438 232.863281 C 91.464844 230.496094 89.589844 224.414062 92.339844 219.667969 C 95.125 214.859375 101.800781 213.429688 106.363281 216.777344 C 107.484375 217.601562 108.300781 218.839844 109.296875 219.851562 C 109.640625 220.199219 110.101562 220.683594 110.511719 220.6875 C 115.429688 220.746094 120.34375 220.726562 125.285156 220.726562 C 125.285156 219.160156 125.121094 217.6875 125.316406 216.265625 C 125.792969 212.792969 124.679688 210.179688 122.347656 207.46875 C 120.03125 204.777344 118.660156 201.257812 116.972656 198.054688 C 116.550781 197.246094 116.265625 196.722656 115.199219 196.730469 C 106.585938 196.777344 97.96875 196.78125 89.355469 196.722656 C 88.007812 196.714844 87.308594 197.167969 86.648438 198.363281 C 84.523438 202.21875 81.164062 204.253906 76.738281 204.097656 C 72.644531 203.953125 69.488281 202.039062 67.597656 198.332031 C 64.867188 192.976562 67.277344 186.25 72.714844 183.886719 C 78.289062 181.464844 85.113281 184.199219 87.199219 189.753906 C 87.535156 190.652344 87.957031 190.921875 88.882812 190.921875 C 97.25 190.886719 105.621094 190.867188 113.984375 190.929688 C 115.382812 190.941406 115.675781 190.484375 115.691406 189.175781 C 115.863281 174.894531 123.195312 165.058594 135.132812 158.132812 C 135.804688 157.738281 136.570312 157.507812 137.351562 157.175781 C 136.796875 155.582031 136.277344 153.964844 135.644531 152.390625 C 135.535156 152.121094 134.953125 151.894531 134.585938 151.894531 C 125.628906 151.886719 116.667969 151.902344 107.710938 151.996094 C 107.265625 152 106.636719 152.703125 106.410156 153.214844 C 103.554688 159.621094 94.664062 161 90.171875 155.65625 C 87.628906 152.632812 87.164062 149.191406 88.738281 145.574219 C 90.292969 141.988281 93.136719 140.0625 97.007812 139.859375 C 100.996094 139.652344 104.085938 141.367188 106.074219 144.820312 C 106.605469 145.738281 107.128906 146.023438 108.125 146.019531 C 116.738281 146 125.355469 146.023438 133.964844 146.03125 C 134.398438 146.03125 134.835938 145.984375 135.183594 145.964844 C 135.621094 144.0625 136.105469 142.269531 136.402344 140.441406 C 136.46875 140.019531 135.96875 139.40625 135.589844 139.019531 C 129.265625 132.605469 122.925781 126.210938 116.589844 119.8125 C 116.347656 119.566406 116.078125 119.339844 115.871094 119.070312 C 114.4375 117.203125 113.238281 116.273438 110.390625 117.425781 C 104.980469 119.605469 99.03125 116.273438 97.113281 110.765625 C 95.289062 105.53125 97.910156 99.679688 103.046875 97.546875 C 108.308594 95.355469 114.328125 97.535156 116.761719 102.539062 C 118.070312 105.222656 118.152344 108.015625 117.460938 110.890625 C 117.335938 111.410156 117.40625 112.226562 117.738281 112.566406 C 124.652344 119.644531 131.613281 126.667969 138.570312 133.703125 C 138.773438 133.90625 139.015625 134.074219 139.375 134.375 C 139.769531 133.886719 140.074219 133.390625 140.492188 133.011719 C 142.589844 131.109375 144.648438 129.148438 146.871094 127.402344 C 147.664062 126.78125 148.042969 126.28125 148.039062 125.285156 C 148.007812 118.25 148 111.207031 148.054688 104.171875 C 148.066406 102.996094 147.738281 102.367188 146.636719 101.804688 C 142.910156 99.898438 140.90625 95.542969 141.789062 91.636719 C 142.691406 87.632812 146.304688 84.523438 150.367188 84.257812 C 154.621094 83.976562 158.480469 86.488281 159.925781 90.484375 C 161.609375 95.140625 159.433594 100.144531 154.832031 102.09375 C 154.078125 102.414062 153.617188 102.695312 153.621094 103.640625 C 153.660156 110.382812 153.640625 117.125 153.640625 123.871094 C 153.640625 124.0625 153.683594 124.257812 153.734375 124.636719 C 164.023438 117.582031 174.039062 118.578125 183.601562 125.414062 C 184.28125 124.316406 184.78125 123.160156 185.605469 122.3125 C 186.058594 121.847656 187.054688 121.726562 187.796875 121.75 C 189.613281 121.808594 190.417969 122.882812 190.820312 125.6875 C 201.269531 118.019531 211.785156 117.90625 222.53125 125.472656 C 222.570312 124.753906 222.617188 124.199219 222.621094 123.640625 C 222.644531 117.191406 222.625 110.746094 222.703125 104.296875 C 222.722656 103.054688 222.367188 102.390625 221.226562 101.792969 C 217.609375 99.90625 215.714844 95.839844 216.464844 91.992188 C 217.257812 87.945312 220.453125 84.878906 224.445312 84.328125 C 228.472656 83.777344 232.355469 85.902344 234.125 89.625 C 235.832031 93.222656 235.0625 97.675781 232.152344 100.351562 C 231.296875 101.132812 230.160156 101.597656 229.226562 102.3125 C 228.835938 102.613281 228.40625 103.175781 228.402344 103.621094 C 228.355469 111.246094 228.363281 118.878906 228.394531 126.507812 C 228.398438 126.9375 228.578125 127.589844 228.886719 127.765625 C 231.816406 129.425781 233.964844 131.898438 236.011719 134.597656 C 236.402344 134.28125 236.71875 134.058594 236.988281 133.792969 C 243.730469 127.101562 250.449219 120.386719 257.226562 113.734375 C 258.457031 112.527344 258.894531 111.453125 258.46875 109.640625 C 257.203125 104.257812 260.359375 98.847656 265.449219 97.183594 C 270.859375 95.414062 276.414062 97.839844 278.742188 103 C 280.941406 107.871094 279.160156 113.863281 274.566406 116.558594 C 271.234375 118.515625 267.695312 118.570312 264.246094 116.890625 C 263.050781 116.3125 262.503906 116.582031 261.65625 117.429688 C 254.21875 124.882812 246.714844 132.269531 239.253906 139.703125 C 238.933594 140.023438 238.675781 140.613281 238.710938 141.050781 C 238.816406 142.421875 239.023438 143.792969 239.324219 145.128906 C 239.40625 145.484375 239.980469 145.972656 240.335938 145.976562 C 249.589844 146.042969 258.839844 146.066406 268.09375 146.027344 C 268.558594 146.027344 269.214844 145.507812 269.449219 145.058594 C 271.480469 141.105469 276.152344 138.980469 280.570312 140.074219 C 284.984375 141.167969 287.957031 145.058594 287.859375 149.613281 C 287.765625 154.203125 284.675781 157.867188 280.140625 158.777344 C 275.640625 159.679688 270.996094 157.246094 269.179688 152.957031 C 268.851562 152.183594 268.433594 151.914062 267.648438 151.914062 C 258.445312 151.921875 249.242188 151.910156 240.035156 151.933594 C 239.664062 151.933594 239.066406 152.144531 238.957031 152.410156 C 238.296875 154.035156 237.742188 155.703125 237.191406 157.253906 C 243.835938 160.289062 249.382812 164.558594 253.355469 170.667969 C 257.292969 176.734375 259.09375 183.445312 258.746094 190.90625 C 259.453125 190.90625 260.023438 190.90625 260.59375 190.90625 C 268.964844 190.894531 277.332031 190.855469 285.695312 190.914062 C 287.046875 190.921875 287.652344 190.503906 288.195312 189.273438 C 290.589844 183.878906 296.847656 181.519531 302.351562 183.816406 C 307.480469 185.953125 310.125 191.984375 308.097656 197.21875 C 306.492188 201.375 303.285156 203.6875 298.914062 204.070312 C 294.214844 204.480469 290.5625 202.5 288.296875 198.324219 C 287.667969 197.15625 287 196.746094 285.695312 196.753906 C 276.886719 196.8125 268.074219 196.796875 259.265625 196.789062 C 258.429688 196.789062 257.804688 196.808594 257.5 197.855469 C 256.121094 202.625 253.589844 206.753906 250.167969 210.328125 C 249.488281 211.035156 249.316406 211.71875 249.375 212.691406 C 249.5 214.742188 249.421875 216.808594 249.40625 218.867188 C 249.40625 219.441406 249.324219 220.019531 249.28125 220.582031 Z M 200.789062 174.117188 C 200.289062 173.804688 199.496094 173.46875 198.914062 172.90625 C 197.414062 171.453125 195.820312 170.035156 194.617188 168.347656 C 193.628906 166.960938 193.9375 165.125 195.019531 164.453125 C 197.152344 163.136719 197.960938 161.042969 198.484375 158.835938 C 200.855469 148.824219 197.632812 140.339844 191.183594 132.785156 C 191.054688 132.632812 190.800781 132.585938 190.449219 132.410156 C 190.417969 133.0625 190.378906 133.539062 190.378906 134.011719 C 190.363281 138.292969 190.359375 142.578125 190.351562 146.859375 C 190.304688 176.886719 190.25 206.910156 190.226562 236.9375 C 190.226562 237.996094 190.289062 239.175781 190.742188 240.089844 C 193.5625 245.75 198.285156 249.15625 204.214844 251 C 204.546875 251.105469 205.234375 250.863281 205.386719 250.582031 C 206.03125 249.382812 206.539062 248.105469 207.128906 246.789062 C 206.71875 246.613281 206.414062 246.472656 206.097656 246.355469 C 199.246094 243.867188 194.152344 236.554688 194.175781 229.226562 C 194.179688 227.316406 195.277344 225.96875 196.949219 225.824219 C 198.703125 225.667969 199.945312 226.703125 200.292969 228.609375 C 200.511719 229.816406 200.660156 231.042969 200.960938 232.234375 C 202.320312 237.632812 207.082031 241.527344 212.082031 241.328125 C 214.789062 241.222656 216.941406 240.082031 218.464844 237.8125 C 216.886719 236.722656 215.351562 235.824219 213.996094 234.707031 C 207.492188 229.34375 205.558594 220.289062 209.242188 212.773438 C 212.71875 205.671875 220.757812 201.917969 228.863281 203.671875 C 229.75 203.867188 230.109375 203.550781 230.503906 202.902344 C 232.347656 199.859375 231.78125 195.195312 229.234375 192.621094 C 225.992188 189.339844 219.925781 190.648438 218.503906 194.929688 C 217.933594 196.648438 215.933594 197.945312 214.21875 197.542969 C 213.328125 197.335938 212.492188 196.84375 211.667969 196.417969 C 208.753906 194.910156 205.667969 194.449219 202.207031 194.65625 C 202.554688 195.148438 202.761719 195.457031 202.984375 195.757812 C 206.21875 200.113281 207.460938 204.910156 206.054688 210.230469 C 205.363281 212.84375 204.507812 215.414062 203.683594 217.988281 C 203.308594 219.15625 202.914062 220.332031 202.371094 221.429688 C 201.578125 223.03125 199.367188 223.496094 197.605469 222.539062 C 196.0625 221.695312 195.882812 220.535156 196.652344 218.640625 C 197.816406 215.777344 198.933594 212.882812 199.839844 209.929688 C 200.996094 206.167969 200.25 202.542969 198.042969 199.382812 C 196.859375 197.683594 195.105469 196.382812 193.648438 194.871094 C 193.195312 194.398438 192.5625 193.835938 192.519531 193.277344 C 192.167969 188.886719 192.449219 184.53125 195.082031 180.8125 C 196.738281 178.476562 198.796875 176.425781 200.789062 174.117188 Z M 173.519531 174.753906 C 173.832031 174.980469 174.070312 175.148438 174.304688 175.324219 C 179.257812 178.96875 181.863281 183.792969 182.101562 190.003906 C 182.207031 192.84375 181.496094 194.769531 179.070312 196.570312 C 175.074219 199.535156 173.289062 203.863281 174.402344 208.816406 C 175.136719 212.097656 176.523438 215.238281 177.757812 218.390625 C 178.292969 219.761719 178.476562 220.929688 177.328125 222.027344 C 176.300781 223.007812 174.574219 223.378906 173.371094 222.570312 C 172.574219 222.03125 171.789062 221.152344 171.488281 220.257812 C 170.3125 216.765625 169.195312 213.242188 168.324219 209.660156 C 167.34375 205.648438 168 201.71875 169.804688 198.03125 C 170.382812 196.839844 171.292969 195.804688 172.1875 194.496094 C 171.445312 194.496094 170.871094 194.488281 170.300781 194.496094 C 167.117188 194.539062 164.257812 195.636719 161.4375 197.007812 C 159.0625 198.164062 156.917969 197.101562 156.109375 194.601562 C 155.917969 194.007812 155.664062 193.371094 155.253906 192.925781 C 152.34375 189.761719 146.96875 190.167969 144.570312 193.730469 C 143.160156 195.828125 142.683594 198.191406 143.183594 200.644531 C 143.398438 201.699219 143.96875 202.78125 144.675781 203.589844 C 144.933594 203.882812 146.058594 203.40625 146.792969 203.300781 C 153.519531 202.316406 159.125 204.539062 163.292969 209.75 C 170.308594 218.515625 167.292969 231.714844 157.257812 237.101562 C 156.8125 237.339844 156.375 237.585938 155.902344 237.851562 C 159.90625 242.707031 167.40625 242.164062 171.214844 236.929688 C 172.980469 234.5 173.722656 231.75 173.910156 228.78125 C 174.039062 226.792969 175.339844 225.714844 177.226562 225.808594 C 178.953125 225.894531 179.96875 227.007812 179.996094 228.980469 C 180.085938 235.679688 175.488281 244.5 167.808594 246.351562 C 167.585938 246.40625 167.386719 246.554688 166.9375 246.773438 C 167.578125 247.945312 168.191406 249.039062 168.773438 250.148438 C 169.242188 251.039062 169.875 251.226562 170.84375 250.925781 C 174.046875 249.925781 176.914062 248.367188 179.34375 246.046875 C 182.523438 243.007812 184.265625 239.539062 184.246094 234.867188 C 184.101562 201.398438 184.171875 167.929688 184.171875 134.460938 C 184.171875 133.855469 184.171875 133.25 184.171875 132.320312 C 183.582031 132.796875 183.292969 132.96875 183.082031 133.210938 C 177.632812 139.488281 174.917969 146.742188 175.609375 155.070312 C 175.863281 158.136719 176.308594 161.261719 178.726562 163.609375 C 180.617188 165.441406 180.777344 166.710938 179.375 168.960938 C 178.855469 169.789062 178.257812 170.601562 177.554688 171.273438 C 176.3125 172.457031 174.964844 173.519531 173.519531 174.753906 Z M 173.191406 167.585938 C 172.582031 166.273438 171.886719 165.074219 171.449219 163.789062 C 167.371094 151.78125 169.441406 140.824219 177.257812 130.929688 C 178.078125 129.890625 178.105469 129.386719 177.011719 128.636719 C 174.433594 126.867188 171.636719 125.78125 168.507812 125.59375 C 162.480469 125.230469 157.542969 128.65625 156.128906 134.160156 C 154.71875 139.648438 157.46875 145.539062 162.589844 147.984375 C 164.457031 148.875 165.339844 150.597656 164.789062 152.285156 C 164.265625 153.902344 162.644531 154.660156 160.558594 154.265625 C 160.269531 154.210938 159.980469 154.15625 159.691406 154.105469 C 156.453125 153.542969 151.773438 155.71875 150.148438 158.5625 C 149.621094 159.484375 149.296875 160.402344 149.9375 161.46875 C 152.878906 166.398438 151.773438 173.175781 147.804688 177.65625 C 144.726562 181.136719 141.226562 181.675781 137.261719 179.261719 C 136.601562 178.863281 135.96875 178.421875 135.269531 177.960938 C 133.949219 179.609375 133.242188 181.347656 133.351562 183.347656 C 133.46875 185.433594 134.671875 186.792969 136.492188 187.640625 C 138.191406 188.433594 139.664062 188.464844 141.375 187.183594 C 147.28125 182.742188 155.535156 183.863281 160.175781 189.574219 C 160.792969 190.335938 161.234375 190.589844 162.238281 190.183594 C 165.796875 188.738281 169.507812 188.089844 173.355469 188.511719 C 174.207031 188.605469 175.046875 188.792969 176.089844 188.976562 C 175.894531 188.128906 175.796875 187.5 175.605469 186.90625 C 173.609375 180.753906 168.550781 177.050781 161.96875 176.910156 C 159.9375 176.867188 158.929688 176.105469 158.703125 174.445312 C 158.46875 172.734375 159.425781 171.265625 161.234375 170.835938 C 162.273438 170.589844 163.375 170.578125 164.453125 170.515625 C 167.601562 170.324219 170.519531 169.472656 173.191406 167.585938 Z M 198.457031 188.824219 C 203.925781 187.53125 208.871094 188.371094 213.621094 190.601562 C 215.875 187.585938 218.78125 185.722656 222.246094 184.78125 C 226.695312 183.566406 230.585938 185.042969 234.171875 187.582031 C 235.019531 188.179688 235.789062 188.582031 236.878906 188.296875 C 239.019531 187.730469 240.527344 186.527344 240.960938 184.316406 C 241.457031 181.78125 240.59375 179.625 238.835938 177.664062 C 238.359375 178.046875 237.988281 178.351562 237.609375 178.644531 C 234.324219 181.171875 230.714844 181.128906 227.621094 178.523438 C 223.121094 174.734375 221.46875 167.292969 224.222656 162.089844 C 225.113281 160.410156 224.839844 159.21875 223.789062 157.972656 C 223.15625 157.230469 222.460938 156.503906 221.675781 155.9375 C 219.195312 154.148438 216.464844 153.605469 213.421875 154.25 C 210.914062 154.78125 208.941406 152.578125 209.582031 150.144531 C 209.953125 148.734375 211.183594 148.246094 212.335938 147.679688 C 216.40625 145.679688 219.28125 140.574219 218.832031 136.148438 C 218.214844 130.039062 213.9375 125.941406 207.679688 125.660156 C 203.457031 125.472656 199.746094 126.9375 196.390625 129.546875 C 196.628906 129.886719 196.738281 130.046875 196.855469 130.199219 C 205.539062 141.453125 208.433594 153.480469 201.703125 166.769531 C 201.335938 167.492188 201.496094 167.886719 202.160156 168.152344 C 203.933594 168.855469 205.675781 169.710938 207.515625 170.164062 C 209.066406 170.542969 210.734375 170.425781 212.347656 170.554688 C 214.414062 170.71875 216.238281 172.476562 216.160156 174.195312 C 216.082031 175.988281 214.578125 176.953125 212.171875 176.941406 C 207.375 176.914062 203.675781 179.085938 200.890625 182.878906 C 199.648438 184.570312 198.785156 186.476562 198.457031 188.824219 Z M 243.628906 217.292969 C 242.984375 217.667969 242.570312 217.890625 242.171875 218.144531 C 237.949219 220.859375 233.742188 223.589844 229.511719 226.289062 C 228.855469 226.710938 228.144531 227.101562 227.40625 227.324219 C 225.742188 227.816406 223.710938 226.789062 223.128906 225.257812 C 222.578125 223.800781 223.308594 222.363281 224.941406 221.375 C 230.695312 217.871094 236.410156 214.304688 242.175781 210.820312 C 243.0625 210.285156 243.125 209.683594 242.875 208.863281 C 241.929688 205.761719 240.441406 202.957031 238.28125 200.527344 C 238.078125 200.300781 237.773438 200.167969 237.328125 199.863281 C 237.328125 202.886719 236.183594 205.300781 234.695312 207.585938 C 232.824219 210.445312 231.445312 210.910156 228.230469 209.792969 C 224.378906 208.453125 219.261719 209.742188 216.542969 212.742188 C 211.980469 217.773438 212.558594 225.453125 217.839844 230.003906 C 224.179688 235.464844 234.246094 234.382812 239.898438 227.617188 C 242.304688 224.726562 243.660156 221.4375 243.628906 217.292969 Z M 137.023438 199.847656 C 134.308594 202.546875 132.609375 205.746094 131.707031 209.375 C 131.640625 209.65625 131.992188 210.167969 132.285156 210.386719 C 133.585938 211.359375 134.894531 212.324219 136.269531 213.183594 C 140.6875 215.941406 145.171875 218.597656 149.550781 221.414062 C 150.410156 221.964844 151.195312 222.972656 151.515625 223.933594 C 151.914062 225.125 151.210938 226.21875 150.125 226.925781 C 148.949219 227.695312 147.753906 227.789062 146.527344 227.015625 C 142 224.148438 137.46875 221.28125 132.9375 218.429688 C 132.382812 218.082031 131.78125 217.808594 131 217.394531 C 131.035156 218.066406 131.027344 218.449219 131.082031 218.828125 C 132.035156 225.691406 137.367188 231.574219 144.148438 233.035156 C 149.976562 234.289062 155.011719 232.835938 158.753906 228.035156 C 161.929688 223.957031 161.886719 218.121094 158.875 213.835938 C 155.953125 209.675781 150.582031 208.15625 146.203125 209.910156 C 143.507812 210.988281 142.082031 210.382812 140.347656 208.027344 C 138.566406 205.609375 137.367188 202.953125 137.023438 199.847656 Z M 131.542969 168.25 C 121.039062 173.671875 118.140625 197.007812 127.179688 203.835938 C 129.015625 199.964844 131.1875 196.34375 134.679688 193.714844 C 130.191406 191.539062 127.535156 188.222656 127.300781 183.339844 C 127.109375 179.339844 128.6875 175.972656 131.625 173.234375 C 132.023438 172.863281 132.59375 172.285156 132.535156 171.890625 C 132.347656 170.660156 131.894531 169.46875 131.542969 168.25 Z M 241.742188 172.511719 C 245.628906 175.183594 247.570312 178.910156 247.261719 183.5625 C 246.949219 188.265625 244.425781 191.6875 240.15625 193.851562 C 243.59375 196.511719 245.566406 200.113281 247.386719 203.859375 C 256.675781 193.730469 253.316406 175.726562 242.824219 168.066406 C 242.46875 169.519531 242.117188 170.96875 241.742188 172.511719 Z M 230.285156 156.5 C 233.578125 152.304688 234.359375 147.542969 232.875 142.417969 C 231.503906 137.695312 228.621094 134.164062 223.832031 131.71875 C 225.8125 138.21875 224.425781 143.722656 220.75 148.484375 C 222.683594 149.585938 224.640625 150.378906 226.175781 151.675781 C 227.742188 153 228.890625 154.820312 230.285156 156.5 Z M 154.023438 148.839844 C 149.902344 143.742188 148.953125 138.179688 150.5625 132.003906 C 141.523438 136.894531 138.4375 149.570312 144.492188 156.699219 C 146.578125 152.875 149.347656 149.871094 154.023438 148.839844 Z M 211.304688 251.667969 C 219.578125 251.882812 228.90625 245.773438 231.367188 239.242188 C 229.34375 239.355469 227.355469 239.4375 225.371094 239.605469 C 225.070312 239.632812 224.746094 240.039062 224.535156 240.34375 C 222.027344 244.027344 218.53125 246.199219 214.230469 247.1875 C 213.882812 247.269531 213.421875 247.4375 213.273438 247.707031 C 212.574219 248.984375 211.96875 250.308594 211.304688 251.667969 Z M 143.859375 239.351562 C 145.761719 245.34375 157.195312 252.664062 162.769531 251.53125 C 162.207031 250.226562 161.695312 248.90625 161.066406 247.644531 C 160.90625 247.324219 160.421875 247.039062 160.042969 246.960938 C 155.792969 246.078125 152.492188 243.808594 150.007812 240.273438 C 149.789062 239.960938 149.328125 239.679688 148.957031 239.644531 C 147.304688 239.496094 145.644531 239.445312 143.859375 239.351562 Z M 274.066406 107.363281 C 274.074219 104.484375 271.792969 102.214844 268.902344 102.226562 C 266.066406 102.238281 263.796875 104.457031 263.769531 107.242188 C 263.742188 110.011719 266.148438 112.476562 268.898438 112.488281 C 271.773438 112.503906 274.058594 110.234375 274.066406 107.363281 Z M 107.433594 256.894531 C 104.328125 256.871094 102.109375 259.070312 102.125 262.160156 C 102.136719 264.84375 104.429688 267.050781 107.203125 267.050781 C 110.082031 267.054688 112.417969 264.878906 112.457031 262.160156 C 112.5 259.273438 110.253906 256.917969 107.433594 256.894531 Z M 268.582031 256.9375 C 265.675781 256.957031 263.484375 259.089844 263.476562 261.910156 C 263.46875 264.933594 265.675781 267.097656 268.734375 267.066406 C 271.523438 267.039062 273.777344 264.777344 273.808594 261.980469 C 273.835938 259.128906 271.542969 256.917969 268.582031 256.9375 Z M 298.007812 198.636719 C 300.882812 198.667969 303.109375 196.535156 303.152344 193.71875 C 303.195312 190.851562 300.917969 188.542969 298.054688 188.542969 C 295.226562 188.550781 292.90625 190.761719 292.859375 193.496094 C 292.8125 196.308594 295.109375 198.605469 298.007812 198.636719 Z M 107.253906 112.417969 C 110.050781 112.449219 112.296875 110.199219 112.296875 107.363281 C 112.296875 104.617188 110.113281 102.371094 107.378906 102.304688 C 104.484375 102.234375 102.1875 104.46875 102.167969 107.367188 C 102.148438 110.113281 104.4375 112.386719 107.253906 112.417969 Z M 77.101562 198.554688 C 80.125 198.5625 82.292969 196.445312 82.269531 193.503906 C 82.246094 190.722656 80.117188 188.636719 77.253906 188.589844 C 74.402344 188.542969 72.160156 190.738281 72.160156 193.582031 C 72.164062 196.402344 74.292969 198.546875 77.101562 198.554688 Z M 140.042969 162.359375 C 139.75 162.390625 138.988281 162.371094 138.296875 162.582031 C 137.9375 162.6875 137.472656 163.1875 137.445312 163.535156 C 137.167969 167.195312 137.910156 170.582031 140.351562 173.453125 C 141.441406 174.738281 142.226562 174.761719 143.398438 173.5 C 145.222656 171.542969 145.546875 169.136719 145.246094 166.617188 C 144.886719 163.574219 143.519531 162.394531 140.042969 162.359375 Z M 233.984375 162.488281 C 232.292969 162.390625 230.597656 162.753906 229.609375 164.671875 C 228.265625 167.28125 228.898438 171.398438 230.988281 173.457031 C 232.160156 174.609375 232.695312 174.648438 233.792969 173.449219 C 235.976562 171.066406 237.140625 168.292969 236.859375 164.996094 C 236.652344 162.523438 236.671875 162.519531 233.984375 162.488281 Z M 97.503906 153.453125 C 99.863281 153.457031 101.695312 151.695312 101.703125 149.421875 C 101.707031 147.277344 99.816406 145.453125 97.585938 145.449219 C 95.28125 145.449219 93.449219 147.296875 93.480469 149.582031 C 93.507812 151.726562 95.300781 153.449219 97.503906 153.453125 Z M 278.117188 153.390625 C 280.492188 153.417969 282.359375 151.707031 282.414062 149.449219 C 282.464844 147.382812 280.496094 145.472656 278.296875 145.453125 C 276.03125 145.429688 274.136719 147.195312 274.140625 149.332031 C 274.136719 151.59375 275.878906 153.367188 278.117188 153.390625 Z M 104.609375 224.210938 C 104.585938 222.070312 102.789062 220.453125 100.488281 220.503906 C 98.257812 220.550781 96.679688 222.136719 96.679688 224.339844 C 96.679688 226.660156 98.398438 228.386719 100.671875 228.355469 C 102.859375 228.320312 104.632812 226.449219 104.609375 224.210938 Z M 281.414062 224.539062 C 281.421875 222.214844 279.804688 220.59375 277.433594 220.554688 C 275.183594 220.511719 273.503906 222.140625 273.46875 224.386719 C 273.4375 226.6875 275.246094 228.507812 277.550781 228.488281 C 279.769531 228.46875 281.402344 226.800781 281.414062 224.539062 Z M 154.957031 279.820312 C 154.941406 277.816406 153.175781 276.011719 151.226562 275.996094 C 149.1875 275.980469 147.402344 277.839844 147.453125 279.914062 C 147.503906 281.9375 149.269531 283.621094 151.308594 283.589844 C 153.484375 283.554688 154.980469 282.011719 154.957031 279.820312 Z M 229.300781 279.851562 C 229.261719 277.792969 227.4375 275.960938 225.449219 275.988281 C 223.496094 276.011719 221.851562 277.816406 221.867188 279.90625 C 221.890625 282.070312 223.535156 283.609375 225.792969 283.570312 C 227.875 283.539062 229.339844 281.984375 229.300781 279.851562 Z M 154.769531 93.605469 C 154.773438 91.644531 153.082031 89.988281 151.070312 89.980469 C 148.914062 89.976562 147.28125 91.558594 147.28125 93.652344 C 147.28125 95.582031 148.996094 97.261719 150.992188 97.28125 C 153.132812 97.308594 154.769531 95.714844 154.769531 93.605469 Z M 229.363281 93.695312 C 229.378906 91.558594 227.917969 90.070312 225.785156 90.0625 C 223.652344 90.058594 222.101562 91.554688 222.097656 93.621094 C 222.089844 95.648438 223.859375 97.484375 225.789062 97.460938 C 227.742188 97.429688 229.347656 95.742188 229.363281 93.695312 Z M 229.363281 93.695312 " fill-opacity="1" fill-rule="nonzero"/><g clip-path="url(#39193f5273)"><path fill="#ffffff" d="M 187.945312 78.402344 C 192.628906 78.394531 196.847656 81.828125 197.917969 86.511719 C 199.03125 91.390625 196.734375 96.238281 192.113281 98.347656 C 190.847656 98.925781 190.539062 99.625 190.558594 100.894531 C 190.625 104.679688 190.582031 108.464844 190.570312 112.25 C 190.5625 113.910156 189.105469 115.539062 187.664062 115.53125 C 186.066406 115.527344 184.816406 114.285156 184.785156 112.425781 C 184.726562 108.398438 184.738281 104.363281 184.789062 100.332031 C 184.804688 99.320312 184.527344 98.78125 183.535156 98.34375 C 178.914062 96.296875 176.527344 91.386719 177.617188 86.417969 C 178.660156 81.683594 182.878906 78.40625 187.945312 78.402344 Z M 192.492188 88.925781 C 192.511719 86.261719 190.371094 84.042969 187.792969 84.046875 C 185.0625 84.050781 182.921875 86.207031 182.933594 88.9375 C 182.945312 91.511719 185.164062 93.792969 187.691406 93.828125 C 190.394531 93.871094 192.476562 91.742188 192.492188 88.925781 Z M 192.492188 88.925781 " fill-opacity="1" fill-rule="nonzero"/></g><path fill="#ffffff" d="M 184.769531 268.363281 C 184.769531 266.546875 184.75 264.726562 184.777344 262.910156 C 184.808594 260.996094 185.878906 259.902344 187.65625 259.90625 C 189.324219 259.910156 190.554688 261.136719 190.574219 262.945312 C 190.609375 266.484375 190.617188 270.023438 190.558594 273.5625 C 190.542969 274.652344 190.777344 275.238281 191.910156 275.738281 C 198.679688 278.726562 200.484375 287.953125 195.289062 292.855469 C 192.042969 295.917969 188.152344 296.566406 184.0625 295.039062 C 179.953125 293.511719 177.671875 290.355469 177.460938 285.949219 C 177.242188 281.410156 179.25 277.945312 183.242188 275.796875 C 184.421875 275.164062 184.890625 274.535156 184.796875 273.222656 C 184.679688 271.617188 184.765625 269.988281 184.769531 268.363281 Z M 192.628906 285.238281 C 192.625 282.667969 190.417969 280.527344 187.773438 280.527344 C 184.992188 280.527344 182.910156 282.628906 182.957031 285.382812 C 183.003906 288.136719 185.273438 290.398438 187.941406 290.359375 C 190.464844 290.320312 192.640625 287.941406 192.628906 285.238281 Z M 192.628906 285.238281 " fill-opacity="1" fill-rule="nonzero"/></svg>